<svg width="15" height="15" viewBox="0 0 15 15" fill="none" xmlns="http://www.w3.org/2000/svg">
<g clip-path="url(#clip0_407_247)">
<path d="M15 7.55836C15 7.03702 14.9587 6.51288 14.8706 6H7.80005V8.95327H11.849C11.681 9.90575 10.9906 10.8646 10.2 11.4L10.3506 13.2L12.6 13.2C14.0186 11.8643 15 9.89166 15 7.55836Z" fill="white"/>
<path d="M7.61731 15C9.64464 15 11.3543 14.3427 12.6 13.2082L10.2 11.4C9.52609 11.8527 8.63374 12.0627 7.62007 12.0627C5.65902 12.0627 3.89663 10.7564 3.30002 9H0.900024V10.9118C2.17609 13.4182 4.77517 15 7.61731 15Z" fill="white"/>
<path d="M3.30004 9.00005C2.95618 8.08729 3.10618 6.91282 3.45004 6.00005L3.60004 4.20005L0.90003 4.05005C-0.264276 6.12673 -0.291038 8.72337 0.873268 10.8001L3.30004 9.00005Z" fill="white"/>
<path d="M7.76201 2.93619C8.85676 2.91984 9.91484 3.31781 10.7077 4.04832L12.9 1.93037C11.5118 0.671049 9.66936 -0.0213065 7.76201 0.000499909C4.85864 0.000499909 2.20358 1.54226 0.900024 4.05L3.45069 6C4.05733 4.24186 5.75871 2.93619 7.76201 2.93619Z" fill="white"/>
</g>
<defs>
<clipPath id="clip0_407_247">
<rect width="15" height="15" fill="white"/>
</clipPath>
</defs>
</svg>
