<svg width="31" height="27" viewBox="0 0 31 27" fill="none" xmlns="http://www.w3.org/2000/svg">
<path d="M29.5479 5.69338C29.0897 4.63257 28.4291 3.67127 27.603 2.8633C26.7763 2.05292 25.8016 1.40893 24.7319 0.966332C23.6227 0.505567 22.433 0.26972 21.2319 0.272485C19.5469 0.272485 17.9028 0.73391 16.4741 1.60549C16.1323 1.81399 15.8076 2.04299 15.5 2.2925C15.1924 2.04299 14.8677 1.81399 14.5259 1.60549C13.0972 0.73391 11.4531 0.272485 9.76807 0.272485C8.55469 0.272485 7.37891 0.504907 6.26807 0.966332C5.19482 1.41067 4.22754 2.04983 3.39697 2.8633C2.56981 3.67036 1.90906 4.63189 1.45215 5.69338C0.977051 6.79738 0.734375 7.96975 0.734375 9.17629C0.734375 10.3145 0.966797 11.5005 1.42822 12.707C1.81445 13.7153 2.36816 14.7612 3.07568 15.8174C4.19678 17.4888 5.73828 19.2319 7.65234 20.999C10.8242 23.9282 13.9653 25.9517 14.0986 26.0337L14.9087 26.5532C15.2676 26.7822 15.729 26.7822 16.0879 26.5532L16.898 26.0337C17.0313 25.9483 20.1689 23.9282 23.3442 20.999C25.2583 19.2319 26.7998 17.4888 27.9209 15.8174C28.6284 14.7612 29.1855 13.7153 29.5684 12.707C30.0298 11.5005 30.2622 10.3145 30.2622 9.17629C30.2656 7.96975 30.023 6.79738 29.5479 5.69338V5.69338Z" fill="black"/>
</svg>
