<svg width="13" height="13" viewBox="0 0 13 13" fill="none" xmlns="http://www.w3.org/2000/svg">
<path d="M1.625 6.5C1.625 7.39592 2.35408 8.125 3.25 8.125C3.68008 8.125 4.069 7.95438 4.35987 7.68083L7.605 9.5355C7.59525 9.60592 7.58333 9.67633 7.58333 9.75C7.58333 10.6459 8.31242 11.375 9.20833 11.375C10.1042 11.375 10.8333 10.6459 10.8333 9.75C10.8333 8.85408 10.1042 8.125 9.20833 8.125C8.77825 8.125 8.38933 8.29563 8.09846 8.56917L4.85333 6.71504C4.86308 6.64408 4.875 6.57367 4.875 6.5C4.875 6.42633 4.86308 6.35592 4.85333 6.28496L8.09846 4.43083C8.38933 4.70438 8.77825 4.875 9.20833 4.875C10.1042 4.875 10.8333 4.14592 10.8333 3.25C10.8333 2.35408 10.1042 1.625 9.20833 1.625C8.31242 1.625 7.58333 2.35408 7.58333 3.25C7.58333 3.32367 7.59525 3.39408 7.605 3.46504L4.35987 5.31917C4.06034 5.03462 3.66315 4.87567 3.25 4.875C2.35408 4.875 1.625 5.60408 1.625 6.5Z" fill="#868686"/>
</svg>
