<svg width="26" height="26" viewBox="0 0 26 26" fill="none" xmlns="http://www.w3.org/2000/svg">
<g clip-path="url(#clip0_414_224)">
<path d="M0 13.0002C0 18.3235 3.20105 22.8967 7.78162 24.9073C7.74506 23.9995 7.77512 22.9098 8.0079 21.9221C8.25784 20.8667 9.68063 14.8383 9.68063 14.8383C9.68063 14.8383 9.26534 14.0082 9.26534 12.7814C9.26534 10.8549 10.3819 9.41606 11.7725 9.41606C12.955 9.41606 13.5263 10.3042 13.5263 11.3678C13.5263 12.5565 12.7681 14.3345 12.3782 15.9814C12.0525 17.3604 13.0697 18.4852 14.4301 18.4852C16.8932 18.4852 18.5521 15.3216 18.5521 11.5734C18.5521 8.72412 16.6331 6.59151 13.1427 6.59151C9.19923 6.59151 6.74253 9.53235 6.74253 12.8173C6.74253 13.9499 7.07647 14.7486 7.59952 15.3671C7.84002 15.6512 7.87343 15.7654 7.78639 16.0917C7.72403 16.3308 7.58083 16.9067 7.52152 17.1349C7.43498 17.4642 7.16818 17.5819 6.8706 17.4603C5.05426 16.7188 4.20834 14.7297 4.20834 12.4937C4.20834 8.8008 7.32286 4.37267 13.4995 4.37267C18.4628 4.37267 21.7296 7.96433 21.7296 11.8197C21.7296 16.9195 18.8944 20.7294 14.7151 20.7294C13.3116 20.7294 11.9914 19.9707 11.5391 19.109C11.5391 19.109 10.7844 22.1043 10.6246 22.6827C10.3489 23.685 9.80941 24.6868 9.31612 25.4676C10.5123 25.8213 11.7532 26.0008 13.0005 26.0007C20.1794 26.0007 26.0001 20.1803 26.0001 13.0002C26.0001 5.82045 20.1794 0 13.0005 0C5.82095 0 0 5.82045 0 13.0002Z" fill="white"/>
</g>
<defs>
<clipPath id="clip0_414_224">
<rect width="26" height="26" fill="white"/>
</clipPath>
</defs>
</svg>
