<svg width="500" height="176" viewBox="0 0 500 176" fill="none" xmlns="http://www.w3.org/2000/svg">
<rect width="500" height="176" fill="black"/>
<path d="M50.0832 46.012C48.8232 44.932 48.2472 44.572 47.0952 44.176C46.0872 43.78 44.8632 43.6 43.6392 43.6C39.3192 43.6 36.4032 46.408 36.4032 50.512C36.4032 51.772 36.6552 52.636 37.4472 54.004C38.6352 55.516 39.1032 55.804 41.6592 56.74C44.2872 57.676 45.4752 58.648 45.4752 59.908C45.4752 60.448 45.1872 61.06 44.6832 61.564C44.1792 62.068 43.4952 62.392 42.9192 62.392C41.5872 62.392 40.3992 61.744 38.8152 60.124L35.5392 63.94C37.1952 65.452 37.9512 65.992 39.2832 66.568C40.3992 67.072 41.5152 67.324 42.6312 67.324C46.9872 67.324 50.6952 63.94 50.6952 59.944C50.6952 57.964 49.7232 56.092 48.0312 54.832C47.2032 54.22 46.4112 53.824 44.5392 53.032C42.4152 52.168 41.4432 51.232 41.4432 50.08C41.4432 48.928 42.3432 47.956 43.4592 47.956C44.2872 47.956 45.0792 48.28 46.9872 49.396L50.0832 46.012ZM54.2803 43.924V67H67.2763V62.428H59.2483V57.64H67.2763V53.14H59.2483V48.496H67.2763V43.924H54.2803ZM77.2309 43.924V59.944C77.2309 61.492 76.5109 62.464 75.4309 62.464C74.7109 62.464 74.1349 61.78 73.3429 59.944C73.3069 59.872 73.2709 59.764 73.2349 59.728V59.656L69.5989 62.392C70.2109 63.94 70.5349 64.552 71.2909 65.344C72.4789 66.64 74.0269 67.324 75.7909 67.324C79.6069 67.324 82.1629 64.516 82.1629 60.268V43.924H77.2309ZM96.067 51.484L98.839 58.288H93.367L96.067 51.484ZM94.123 43.924L84.907 67H89.875L91.675 62.464H100.531L102.403 67H107.407L97.975 43.924H94.123ZM125.375 48.28H127.211C128.579 48.28 130.415 48.712 131.495 49.288C133.259 50.296 134.339 52.564 134.339 55.3C134.339 57.712 133.691 59.656 132.503 60.772C131.423 61.816 129.335 62.536 127.355 62.536H125.375V48.28ZM120.371 43.924V67H127.823C134.879 67 139.451 62.464 139.451 55.48C139.451 48.532 134.987 43.924 128.255 43.924H120.371ZM153.41 48.316C153.662 48.316 153.914 48.28 154.202 48.28C158.018 48.28 160.61 51.16 160.61 55.444C160.61 59.8 158.054 62.716 154.13 62.716C150.422 62.716 147.758 59.692 147.758 55.588C147.758 51.592 149.954 48.748 153.41 48.316ZM153.014 43.708C146.93 44.32 142.574 49.18 142.574 55.444C142.574 62.356 147.398 67.288 154.13 67.288C160.898 67.288 165.83 62.284 165.83 55.48C165.83 48.64 160.862 43.672 153.986 43.672C153.662 43.672 153.338 43.708 153.014 43.708ZM196.785 45.148C194.409 44.104 192.357 43.6 190.233 43.6C183.861 43.6 178.857 48.856 178.857 55.552C178.857 62.14 183.753 67.324 190.017 67.324C192.069 67.324 193.617 67 196.785 65.956V60.376C194.049 61.924 192.429 62.464 190.557 62.464C186.597 62.464 184.041 59.8 184.041 55.66C184.041 51.304 186.453 48.532 190.233 48.532C190.665 48.532 191.097 48.568 191.493 48.64C193.149 48.892 194.301 49.36 196.785 50.8V45.148ZM200.637 43.924V67H212.373V62.032H205.569V43.924H200.637ZM215.893 43.924V59.116C215.893 61.24 217.009 63.796 218.665 65.272C220.249 66.676 222.229 67.324 225.037 67.324C227.773 67.324 230.221 66.352 231.805 64.624C233.029 63.22 233.929 60.844 233.929 58.864V43.924H229.033V57.784C229.033 60.7 227.485 62.392 224.749 62.392C222.373 62.392 220.789 60.664 220.789 58.036V43.924H215.893ZM243.64 47.812H244.828C246.52 47.812 247.78 48.784 247.78 50.08C247.78 51.664 246.484 52.852 244.792 52.852H243.64V47.848V47.812ZM243.64 56.776H245.692C248.176 56.776 249.544 57.964 249.544 60.124C249.544 62.104 248.14 63.112 245.44 63.112H243.64V56.776ZM238.672 43.924V67H246.412C251.668 67 254.728 64.516 254.728 60.268C254.728 59.188 254.476 58.108 253.972 57.244C253.216 55.84 252.244 55.084 250.336 54.4C252.064 52.924 252.712 51.736 252.712 49.792C252.712 48.424 252.1 46.696 251.416 45.94C250.12 44.5 248.392 43.924 245.404 43.924H238.672ZM257.87 43.924V67H270.866V62.428H262.838V57.64H270.866V53.14H262.838V48.496H270.866V43.924H257.87ZM294.703 48.316C294.955 48.316 295.207 48.28 295.495 48.28C299.311 48.28 301.903 51.16 301.903 55.444C301.903 59.8 299.347 62.716 295.423 62.716C291.715 62.716 289.051 59.692 289.051 55.588C289.051 51.592 291.247 48.748 294.703 48.316ZM294.307 43.708C288.223 44.32 283.867 49.18 283.867 55.444C283.867 62.356 288.691 67.288 295.423 67.288C302.191 67.288 307.123 62.284 307.123 55.48C307.123 48.64 302.155 43.672 295.279 43.672C294.955 43.672 294.631 43.708 294.307 43.708ZM311.272 43.924V59.116C311.272 61.24 312.388 63.796 314.044 65.272C315.628 66.676 317.608 67.324 320.416 67.324C323.152 67.324 325.6 66.352 327.184 64.624C328.408 63.22 329.308 60.844 329.308 58.864V43.924H324.412V57.784C324.412 60.7 322.864 62.392 320.128 62.392C317.752 62.392 316.168 60.664 316.168 58.036V43.924H311.272ZM332.539 43.924V48.82H337.795V67H342.763V48.82H348.055V43.924H332.539ZM367.891 45.148C365.515 44.104 363.463 43.6 361.339 43.6C354.967 43.6 349.963 48.856 349.963 55.552C349.963 62.14 354.859 67.324 361.123 67.324C363.175 67.324 364.723 67 367.891 65.956V60.376C365.155 61.924 363.535 62.464 361.663 62.464C357.703 62.464 355.147 59.8 355.147 55.66C355.147 51.304 357.559 48.532 361.339 48.532C361.771 48.532 362.203 48.568 362.599 48.64C364.255 48.892 365.407 49.36 367.891 50.8V45.148ZM381.571 51.484L384.343 58.288H378.871L381.571 51.484ZM379.627 43.924L370.411 67H375.379L377.179 62.464H386.035L387.907 67H392.911L383.479 43.924H379.627ZM409.38 46.012C408.12 44.932 407.544 44.572 406.392 44.176C405.384 43.78 404.16 43.6 402.936 43.6C398.616 43.6 395.7 46.408 395.7 50.512C395.7 51.772 395.952 52.636 396.744 54.004C397.932 55.516 398.4 55.804 400.956 56.74C403.584 57.676 404.772 58.648 404.772 59.908C404.772 60.448 404.484 61.06 403.98 61.564C403.476 62.068 402.792 62.392 402.216 62.392C400.884 62.392 399.696 61.744 398.112 60.124L394.836 63.94C396.492 65.452 397.248 65.992 398.58 66.568C399.696 67.072 400.812 67.324 401.928 67.324C406.284 67.324 409.992 63.94 409.992 59.944C409.992 57.964 409.02 56.092 407.328 54.832C406.5 54.22 405.708 53.824 403.836 53.032C401.712 52.168 400.74 51.232 400.74 50.08C400.74 48.928 401.64 47.956 402.756 47.956C403.584 47.956 404.376 48.28 406.284 49.396L409.38 46.012ZM411.957 43.924V48.82H417.213V67H422.181V48.82H427.473V43.924H411.957ZM440.366 43.924V67H453.362V62.428H445.334V57.64H453.362V53.14H445.334V48.496H453.362V43.924H440.366ZM109.829 80.928C108.677 79.2 108.101 78.552 107.021 77.724C105.113 76.32 102.953 75.6 100.469 75.6C94.0971 75.6 88.9491 80.82 88.9491 87.3C88.9491 94.104 93.8811 99.324 100.289 99.324C102.629 99.324 105.185 98.532 106.985 97.236C109.397 95.508 111.269 92.016 111.269 89.28V86.292H100.613V90.792H106.085C105.293 92.556 104.753 93.204 103.529 93.816C102.737 94.248 101.837 94.464 100.865 94.464C97.0851 94.464 94.0611 91.332 94.0611 87.372C94.0611 83.628 97.1211 80.46 100.757 80.46C102.161 80.46 103.457 80.928 104.609 81.792C105.365 82.368 105.761 82.8 106.517 84.024L109.829 80.928ZM124.93 83.484L127.702 90.288H122.23L124.93 83.484ZM122.986 75.924L113.77 99H118.738L120.538 94.464H129.394L131.266 99H136.27L126.838 75.924H122.986ZM155.043 75.924V90.756H154.971L144.423 75.924H139.527V99H144.495V84.06H144.567L155.079 99H159.903V75.924H155.043ZM164.529 75.924V99H169.497V89.82H177.669V99H182.637V75.924H177.669V84.816H169.497V75.924H164.529ZM187.452 75.924V99H200.448V94.428H192.42V89.64H200.448V85.14H192.42V80.496H200.448V75.924H187.452ZM219.101 80.28H220.937C222.305 80.28 224.141 80.712 225.221 81.288C226.985 82.296 228.065 84.564 228.065 87.3C228.065 89.712 227.417 91.656 226.229 92.772C225.149 93.816 223.061 94.536 221.081 94.536H219.101V80.28ZM214.097 75.924V99H221.549C228.605 99 233.177 94.464 233.177 87.48C233.177 80.532 228.713 75.924 221.981 75.924H214.097ZM237.093 75.924V99H250.089V94.428H242.061V89.64H250.089V85.14H242.061V80.496H250.089V75.924H237.093ZM267.243 78.012C265.983 76.932 265.407 76.572 264.255 76.176C263.247 75.78 262.023 75.6 260.799 75.6C256.479 75.6 253.563 78.408 253.563 82.512C253.563 83.772 253.815 84.636 254.607 86.004C255.795 87.516 256.263 87.804 258.819 88.74C261.447 89.676 262.635 90.648 262.635 91.908C262.635 92.448 262.347 93.06 261.843 93.564C261.339 94.068 260.655 94.392 260.079 94.392C258.747 94.392 257.559 93.744 255.975 92.124L252.699 95.94C254.355 97.452 255.111 97.992 256.443 98.568C257.559 99.072 258.675 99.324 259.791 99.324C264.147 99.324 267.855 95.94 267.855 91.944C267.855 89.964 266.883 88.092 265.191 86.832C264.363 86.22 263.571 85.824 261.699 85.032C259.575 84.168 258.603 83.232 258.603 82.08C258.603 80.928 259.503 79.956 260.619 79.956C261.447 79.956 262.239 80.28 264.147 81.396L267.243 78.012ZM288.648 77.148C286.272 76.104 284.22 75.6 282.096 75.6C275.724 75.6 270.72 80.856 270.72 87.552C270.72 94.14 275.616 99.324 281.88 99.324C283.932 99.324 285.48 99 288.648 97.956V92.376C285.912 93.924 284.292 94.464 282.42 94.464C278.46 94.464 275.904 91.8 275.904 87.66C275.904 83.304 278.316 80.532 282.096 80.532C282.528 80.532 282.96 80.568 283.356 80.64C285.012 80.892 286.164 81.36 288.648 82.8V77.148ZM302.473 80.316C302.725 80.316 302.977 80.28 303.265 80.28C307.081 80.28 309.673 83.16 309.673 87.444C309.673 91.8 307.117 94.716 303.193 94.716C299.485 94.716 296.821 91.692 296.821 87.588C296.821 83.592 299.017 80.748 302.473 80.316ZM302.077 75.708C295.993 76.32 291.637 81.18 291.637 87.444C291.637 94.356 296.461 99.288 303.193 99.288C309.961 99.288 314.893 94.284 314.893 87.48C314.893 80.64 309.925 75.672 303.049 75.672C302.725 75.672 302.401 75.708 302.077 75.708ZM334.305 75.924V90.756H334.233L323.685 75.924H318.789V99H323.757V84.06H323.829L334.341 99H339.165V75.924H334.305ZM342.242 75.924V80.82H347.498V99H352.466V80.82H357.758V75.924H342.242ZM370.781 80.316C371.033 80.316 371.285 80.28 371.573 80.28C375.389 80.28 377.981 83.16 377.981 87.444C377.981 91.8 375.425 94.716 371.501 94.716C367.793 94.716 365.129 91.692 365.129 87.588C365.129 83.592 367.325 80.748 370.781 80.316ZM370.385 75.708C364.301 76.32 359.945 81.18 359.945 87.444C359.945 94.356 364.769 99.288 371.501 99.288C378.269 99.288 383.201 94.284 383.201 87.48C383.201 80.64 378.233 75.672 371.357 75.672C371.033 75.672 370.709 75.708 370.385 75.708ZM400.31 78.012C399.05 76.932 398.474 76.572 397.322 76.176C396.314 75.78 395.09 75.6 393.866 75.6C389.546 75.6 386.63 78.408 386.63 82.512C386.63 83.772 386.882 84.636 387.674 86.004C388.862 87.516 389.33 87.804 391.886 88.74C394.514 89.676 395.702 90.648 395.702 91.908C395.702 92.448 395.414 93.06 394.91 93.564C394.406 94.068 393.722 94.392 393.146 94.392C391.814 94.392 390.626 93.744 389.042 92.124L385.766 95.94C387.422 97.452 388.178 97.992 389.51 98.568C390.626 99.072 391.742 99.324 392.858 99.324C397.214 99.324 400.922 95.94 400.922 91.944C400.922 89.964 399.95 88.092 398.258 86.832C397.43 86.22 396.638 85.824 394.766 85.032C392.642 84.168 391.67 83.232 391.67 82.08C391.67 80.928 392.57 79.956 393.686 79.956C394.514 79.956 395.306 80.28 397.214 81.396L400.31 78.012ZM50.8987 111.112V140H64.8367V137.424H53.4747V125.556H64.7447V122.98H53.4747V113.688H64.7447V111.112H50.8987ZM88.3653 111.112L96.0013 124.912L87.7213 140H90.4813L97.3813 127.396L104.327 140H107.041L98.7613 124.912L106.259 111.112H103.545L97.3813 122.336L91.1713 111.112H88.3653ZM156.49 113.734C154.696 112.354 153.868 111.894 151.982 111.25C150.234 110.606 148.532 110.284 146.876 110.284C138.182 110.284 131.328 116.954 131.328 125.372C131.328 129.696 132.708 133.192 135.514 136.044C138.458 139.034 142.736 140.828 146.922 140.828C148.624 140.828 150.234 140.552 151.798 140C153.546 139.402 154.466 138.85 156.536 137.332V133.514C154.374 135.584 153.408 136.32 151.568 137.056C150.096 137.654 148.624 137.976 146.922 137.976C139.746 137.976 134.088 132.456 134.088 125.464C134.088 118.564 139.7 113.136 146.83 113.136C148.624 113.136 150.418 113.504 152.074 114.286C153.914 115.114 154.742 115.804 156.49 117.69V113.734ZM181.892 111.112V140H191.276V137.424H184.468V111.112H181.892ZM215.977 111.112V130.386C215.977 136.412 220.301 140.828 226.235 140.828C231.663 140.828 235.895 136.366 235.895 130.662V111.112H233.319V130.478C233.319 135.262 230.467 138.252 226.005 138.252C223.889 138.252 222.003 137.47 220.485 135.86C219.105 134.48 218.553 132.64 218.553 129.742V111.112H215.977ZM277.087 114.378C275.983 113.136 275.523 112.63 274.557 111.94C272.947 110.836 271.383 110.284 269.727 110.284C265.679 110.284 262.551 113.09 262.551 116.678C262.551 118.702 263.425 120.68 265.035 122.428C266.507 123.762 266.875 123.992 269.405 125.372C274.327 128.04 276.029 129.88 276.029 132.64C276.029 135.676 273.453 137.976 270.095 137.976C267.519 137.976 265.679 136.78 263.655 133.652L261.125 134.986C262.597 137.194 263.241 137.884 264.575 138.942C266.139 140.184 268.025 140.828 270.187 140.828C274.971 140.828 278.927 137.102 278.927 132.64C278.927 130.432 278.099 128.684 276.075 126.568C274.327 124.958 273.775 124.59 270.969 123.072C268.899 121.922 267.841 121.232 267.059 120.496C266.001 119.392 265.403 118.15 265.403 116.816C265.403 114.7 267.197 113.136 269.589 113.136C271.613 113.136 272.855 113.872 275.109 116.402L277.087 114.378ZM305.33 111.112V140H307.906V111.112H305.33ZM332.86 111.112L343.808 141.104L354.526 111.112H351.95L343.854 133.882H343.762L335.482 111.112H332.86ZM393.199 113.136C400.375 113.136 405.389 118.288 405.389 125.602C405.389 132.732 400.283 137.976 393.337 137.976C386.299 137.976 381.285 132.686 381.285 125.418C381.285 118.334 386.345 113.136 393.199 113.136ZM393.153 110.284C384.781 110.284 378.479 116.77 378.479 125.464C378.479 134.388 384.781 140.828 393.475 140.828C401.939 140.828 408.195 134.342 408.195 125.51C408.195 116.77 401.801 110.284 393.153 110.284ZM438.447 114.378C437.343 113.136 436.883 112.63 435.917 111.94C434.307 110.836 432.743 110.284 431.087 110.284C427.039 110.284 423.911 113.09 423.911 116.678C423.911 118.702 424.785 120.68 426.395 122.428C427.867 123.762 428.235 123.992 430.765 125.372C435.687 128.04 437.389 129.88 437.389 132.64C437.389 135.676 434.813 137.976 431.455 137.976C428.879 137.976 427.039 136.78 425.015 133.652L422.485 134.986C423.957 137.194 424.601 137.884 425.935 138.942C427.499 140.184 429.385 140.828 431.547 140.828C436.331 140.828 440.287 137.102 440.287 132.64C440.287 130.432 439.459 128.684 437.435 126.568C435.687 124.958 435.135 124.59 432.329 123.072C430.259 121.922 429.201 121.232 428.419 120.496C427.361 119.392 426.763 118.15 426.763 116.816C426.763 114.7 428.557 113.136 430.949 113.136C432.973 113.136 434.215 113.872 436.469 116.402L438.447 114.378Z" fill="white"/>
</svg>
